<svg width="135" height="126" viewBox="0 0 135 126" fill="none" xmlns="http://www.w3.org/2000/svg">
<path d="M118.707 17.9568C108.472 7.03933 94.3811 0.591792 79.4641 0V57.3814L118.707 17.9568Z" fill="#797979"/>
<path d="M118.845 25.1035L79.4644 64.5532H134.5C134.52 49.8799 128.916 35.7588 118.845 25.1035Z" fill="#E4E4E4"/>
<path d="M134.5 68.6191C134.502 72.1956 134.172 75.7645 133.514 79.2796C133.463 79.558 133.409 79.8335 133.352 80.109C132.111 86.2407 129.87 92.1255 126.72 97.5271C126.553 97.8168 126.38 98.1066 126.207 98.3906V98.3935C123.102 103.513 119.22 108.116 114.7 112.036C114.476 112.232 114.252 112.426 114.025 112.616C104.311 120.806 92.1496 125.516 79.4644 126V68.6191H134.5Z" fill="#F0F0F0"/>
<path d="M73.8432 126C74.6041 126 75.3604 125.981 76.1142 125.952V68.6191L34.4785 110.314C45.1058 120.404 59.1983 126.02 73.8432 126Z" fill="#CACACA"/>
<path d="M74.5474 7.62109C42.927 7.62109 17.2937 33.3116 17.2937 65.0025H76.8759V7.67224C76.1031 7.64125 75.3277 7.62109 74.5474 7.62109Z" fill="#909090"/>
<path d="M60.0821 68.6191L48.0331 80.657L47.6391 81.0506L47.6305 81.0591L37.1234 91.5536L36.7239 91.9529L25.372 103.294L24.9723 103.693V103.696L18.439 110.221C12.7661 104.876 8.24806 98.4279 5.16297 91.2734C2.07787 84.1189 0.491006 76.4093 0.500038 68.6191H60.0821Z" fill="#A6A6A6"/>
<path d="M24.8321 103.765C15.504 94.4482 10.0534 81.8921 9.59277 68.6598L10.7168 68.6191C11.1675 81.5636 16.4997 93.8465 25.6249 102.961L24.8321 103.765Z" fill="#3F3D56"/>
<path d="M37.35 91.5147L36.5284 92.2889C30.2669 85.6951 25.8475 77.5798 23.7107 68.7519L24.2605 68.6191H24.844C26.9455 77.1999 31.2518 85.0868 37.3387 91.5034L37.35 91.5147Z" fill="#3F3D56"/>
<path d="M48.1177 80.7988L47.7062 81.1558L47.6979 81.1643L47.2756 81.5299C44.1975 77.6973 41.661 73.4267 39.7427 68.8476L40.2447 68.6191H40.8456C42.7035 72.9977 45.1412 77.0839 48.0875 80.7588C48.0967 80.7729 48.1068 80.7862 48.1177 80.7988Z" fill="#3F3D56"/>
</svg>
