<svg width="231" height="126" viewBox="0 0 231 126" fill="none" xmlns="http://www.w3.org/2000/svg">
<path d="M40.3076 65H39.4226V68H40.3076V65Z" fill="#E5E5E5"/>
<path d="M40.3076 117H39.4226V112H40.3076V117ZM40.3076 107H39.4226V102H40.3076V107ZM40.3076 96.9998H39.4226V92H40.3076V96.9998ZM40.3076 86.9999H39.4226V81.9999H40.3076V86.9999ZM40.3076 77H39.4226V72H40.3076V77Z" fill="#BCBCBC"/>
<path d="M40.3076 122H39.4226V125H40.3076V122Z" fill="#E5E5E5"/>
<path d="M116.385 65H114.615V68H116.385V65Z" fill="#E5E5E5"/>
<path d="M117.381 117H115.611V112H117.381V117ZM117.381 107H115.611V102H117.381V107ZM117.381 96.9998H115.611V92H117.381V96.9998ZM117.381 86.9999H115.611V81.9999H117.381V86.9999ZM117.381 77H115.611V72H117.381V77Z" fill="#BCBCBC"/>
<path d="M116.385 122H114.615V125H116.385V122Z" fill="#E5E5E5"/>
<path d="M154.423 19H153.538V21H154.423V19Z" fill="#E5E5E5"/>
<path d="M154.423 117H153.538V112.21H154.423V117ZM154.423 107.421H153.538V102.631H154.423V107.421ZM154.423 97.8418H153.538V93.0524H154.423V97.8418ZM154.423 88.2629H153.538V83.4735H154.423V88.2629ZM154.423 78.6841H153.538V73.8945H154.423V78.6841ZM154.423 69.105H153.538V64.3156H154.423V69.105ZM154.423 59.5262H153.538V54.7368H154.423V59.5262ZM154.423 49.9473H153.538V45.1579H154.423V49.9473ZM154.423 40.3683H153.538V35.5789H154.423V40.3683ZM154.423 30.7894H153.538V26H154.423V30.7894Z" fill="#BCBCBC"/>
<path d="M154.423 122H153.538V125H154.423V122Z" fill="#E5E5E5"/>
<path d="M191.578 117H190.693V112.26H191.578V117ZM191.578 107.521H190.693V102.782H191.578V107.521ZM191.578 98.0432H190.693V93.304H191.578V98.0432ZM191.578 88.5649H190.693V83.8258H191.578V88.5649ZM191.578 79.0867H190.693V74.3475H191.578V79.0867ZM191.578 69.6085H190.693V64.8693H191.578V69.6085ZM191.578 60.1303H190.693V55.3911H191.578V60.1303ZM191.578 50.652H190.693V45.9129H191.578V50.652ZM191.578 41.1738H190.693V36.4347H191.578V41.1738ZM191.578 31.6956H190.693V26.9564H191.578V31.6956ZM191.578 22.2173H190.693V17.4782H191.578V22.2173ZM191.578 12.7391H190.693V8H191.578V12.7391Z" fill="#BCBCBC"/>
<path d="M191.578 122H190.693V125H191.578V122Z" fill="#E5E5E5"/>
<path d="M77.462 34H76.577V36H77.462V34Z" fill="#E5E5E5"/>
<path d="M77.462 118H76.577V113.47H77.462V118ZM77.462 108.941H76.577V104.412H77.462V108.941ZM77.462 99.8821H76.577V95.3528H77.462V99.8821ZM77.462 90.8233H76.577V86.294H77.462V90.8233ZM77.462 81.7645H76.577V77.2352H77.462V81.7645ZM77.462 72.7057H76.577V68.1764H77.462V72.7057ZM77.462 63.6469H76.577V59.1176H77.462V63.6469ZM77.462 54.5881H76.577V50.0588H77.462V54.5881ZM77.462 45.5293H76.577V41H77.462V45.5293Z" fill="#BCBCBC"/>
<path d="M77.462 122H76.577V125H77.462V122Z" fill="#E5E5E5"/>
<path d="M229.783 126H1.21531C1.02559 126 0.843662 125.914 0.709517 125.762C0.575371 125.609 0.500009 125.403 0.5 125.187V0.810318C0.500416 0.595242 0.575963 0.389137 0.710065 0.237223C0.844167 0.0853082 1.02586 0 1.21531 0C1.40475 0 1.58645 0.0853082 1.72056 0.237223C1.85466 0.389137 1.9302 0.595242 1.93062 0.810318V124.375H229.783C229.877 124.375 229.97 124.396 230.057 124.437C230.144 124.477 230.223 124.537 230.29 124.613C230.357 124.688 230.409 124.778 230.445 124.876C230.481 124.975 230.5 125.081 230.5 125.187C230.5 125.294 230.481 125.4 230.445 125.499C230.409 125.597 230.357 125.687 230.29 125.762C230.223 125.838 230.144 125.898 230.057 125.938C229.97 125.979 229.877 126 229.783 126Z" fill="#BCBCBC"/>
<path d="M115.671 69.9998L77.7157 37.8254L40.2793 69.56L39.4226 68.2657L77.7157 35.8045L115.49 67.826L153.027 21.3353L153.178 21.2662L191.042 4L191.576 5.50034L153.863 22.6975L115.671 69.9998Z" fill="#909090"/>
<path d="M40.1735 72C42.3827 72 44.1735 70.2091 44.1735 68C44.1735 65.7909 42.3827 64 40.1735 64C37.9644 64 36.1735 65.7909 36.1735 68C36.1735 70.2091 37.9644 72 40.1735 72Z" fill="#909090"/>
<path d="M76.7856 41C78.9947 41 80.7856 39.2091 80.7856 37C80.7856 34.7909 78.9947 33 76.7856 33C74.5765 33 72.7856 34.7909 72.7856 37C72.7856 39.2091 74.5765 41 76.7856 41Z" fill="#909090"/>
<path d="M116.215 71C118.424 71 120.215 69.2091 120.215 67C120.215 64.7909 118.424 63 116.215 63C114.006 63 112.215 64.7909 112.215 67C112.215 69.2091 114.006 71 116.215 71Z" fill="#909090"/>
<path d="M153.765 26C155.974 26 157.765 24.2091 157.765 22C157.765 19.7909 155.974 18 153.765 18C151.556 18 149.765 19.7909 149.765 22C149.765 24.2091 151.556 26 153.765 26Z" fill="#909090"/>
<path d="M191.317 10C193.526 10 195.317 8.20914 195.317 6C195.317 3.79086 193.526 2 191.317 2C189.107 2 187.317 3.79086 187.317 6C187.317 8.20914 189.107 10 191.317 10Z" fill="#909090"/>
</svg>
