<svg width="206" height="126" viewBox="0 0 206 126" fill="none" xmlns="http://www.w3.org/2000/svg">
<path d="M25.8764 116.665H2.39808C1.76232 116.664 1.1528 116.386 0.703231 115.892C0.253661 115.398 0.000758743 114.729 0 114.03V78.4669C0.000758743 77.7683 0.253661 77.0986 0.703231 76.6046C1.1528 76.1106 1.76232 75.8328 2.39808 75.832H25.8764C26.5122 75.8328 27.1217 76.1106 27.5713 76.6046C28.0208 77.0986 28.2737 77.7683 28.2745 78.4669V114.03C28.2737 114.729 28.0208 115.398 27.5713 115.892C27.1217 116.386 26.5122 116.664 25.8764 116.665Z" fill="#BCBCBC"/>
<path d="M68.2883 116.665H44.81C44.1742 116.664 43.5647 116.378 43.1151 115.867C42.6655 115.357 42.4126 114.666 42.4119 113.944V42.3869C42.4126 41.6655 42.6655 40.9739 43.1151 40.4638C43.5647 39.9537 44.1742 39.6668 44.81 39.666H68.2883C68.9241 39.6668 69.5336 39.9537 69.9831 40.4638C70.4327 40.9739 70.6856 41.6655 70.6864 42.3869V113.944C70.6856 114.666 70.4327 115.357 69.9831 115.867C69.5336 116.378 68.9241 116.664 68.2883 116.665Z" fill="#BCBCBC"/>
<path d="M111.71 116.665H88.2316C87.5958 116.664 86.9863 116.386 86.5367 115.892C86.0872 115.398 85.8343 114.729 85.8335 114.03V78.4669C85.8343 77.7683 86.0872 77.0986 86.5367 76.6046C86.9863 76.1106 87.5958 75.8328 88.2316 75.832H111.71C112.346 75.8328 112.955 76.1106 113.405 76.6046C113.854 77.0986 114.107 77.7683 114.108 78.4669V114.03C114.107 114.729 113.854 115.398 113.405 115.892C112.955 116.386 112.346 116.664 111.71 116.665Z" fill="#BCBCBC"/>
<path d="M153.112 116.663H129.633C129.012 116.678 128.411 116.412 127.961 115.924C127.512 115.436 127.251 114.765 127.235 114.058V28.2694C127.251 27.5626 127.512 26.8915 127.961 26.4033C128.411 25.9151 129.012 25.6495 129.633 25.6647H153.112C153.733 25.6495 154.334 25.9151 154.784 26.4033C155.233 26.8915 155.494 27.5626 155.51 28.2694V114.058C155.494 114.765 155.233 115.436 154.784 115.924C154.334 116.412 153.733 116.678 153.112 116.663Z" fill="#BCBCBC"/>
<path d="M194.514 116.666H171.035C170.4 116.665 169.79 116.375 169.34 115.86C168.891 115.344 168.638 114.646 168.637 113.917V2.74838C168.638 2.01969 168.891 1.32109 169.34 0.805858C169.79 0.290621 170.4 0.000810762 171.035 0H194.514C195.149 0.000810762 195.759 0.290621 196.208 0.805858C196.658 1.32109 196.911 2.01969 196.912 2.74838V113.917C196.911 114.646 196.658 115.344 196.208 115.86C195.759 116.375 195.149 116.665 194.514 116.666Z" fill="#F0F0F0"/>
<path d="M203.602 125.999H180.124C179.488 125.998 178.878 125.711 178.429 125.201C177.979 124.691 177.726 123.999 177.726 123.278V13.2209C177.726 12.4995 177.979 11.8079 178.429 11.2978C178.878 10.7877 179.488 10.5008 180.124 10.5H203.602C204.238 10.5008 204.847 10.7877 205.297 11.2978C205.746 11.8079 205.999 12.4995 206 13.2209V123.278C205.999 123.999 205.746 124.691 205.297 125.201C204.847 125.711 204.238 125.998 203.602 125.999Z" fill="#909090"/>
</svg>
